<svg xmlns="http://www.w3.org/2000/svg" width="100%" height="auto" viewBox="0 0 512 512" version="1.1">
	<path d="M 231.500 38.614 C 180.232 43.959, 136.675 63.633, 100 98.011 L 93.500 104.104 101 97.950 C 118.610 83.501, 142.646 70.316, 163.527 63.652 C 227.841 43.125, 295.301 56.469, 347.286 99.999 C 375.573 123.686, 398.711 160.539, 407.878 196.506 C 412.155 213.289, 413.361 223.735, 413.361 244 C 413.361 269.951, 410.453 287.060, 402.313 309 C 381.949 363.887, 337.518 406.644, 282.473 424.326 C 218.382 444.913, 150.703 431.534, 98.714 388.001 C 68.023 362.301, 44.488 322.689, 36.034 282.500 C 34.710 276.208, 34.120 274.613, 34.070 277.199 C 33.980 281.947, 38.231 302.882, 41.644 314.500 C 58.444 371.687, 99.142 420.271, 152.500 446.837 C 173.184 457.136, 190.928 462.919, 214.919 467.182 C 233.110 470.414, 266.890 470.414, 285.081 467.182 C 317.293 461.458, 344.419 450.821, 369.928 433.912 C 420.226 400.570, 453.442 349.607, 464.132 289.373 C 467.441 270.732, 467.441 237.268, 464.132 218.627 C 455.138 167.950, 430.389 123.946, 392.500 91.264 C 361.758 64.747, 326.271 48.058, 285.500 40.943 C 273.868 38.913, 241.868 37.533, 231.500 38.614 M 332.247 217.332 C 330.458 217.981, 327.581 219.846, 325.854 221.476 C 318.006 228.883, 318.044 239.963, 325.945 247.655 L 329.186 250.810 326.512 263.655 C 325.042 270.720, 323.620 277.288, 323.352 278.250 C 322.902 279.866, 324.139 280, 339.500 280 C 354.864 280, 356.097 279.866, 355.642 278.250 C 355.371 277.288, 353.922 270.545, 352.421 263.267 L 349.693 250.035 352.486 247.267 C 364.139 235.725, 355.655 216.152, 339 216.152 C 337.075 216.152, 334.036 216.683, 332.247 217.332" stroke="none" fill="black" fill-rule="evenodd"/>
</svg>